<svg xmlns="http://www.w3.org/2000/svg" version="1.1" xmlns:xlink="http://www.w3.org/1999/xlink" width="512" height="512" x="0" y="0" viewBox="0 0 64 64" style="enable-background:new 0 0 512 512" xml:space="preserve" class=""><g><g data-name="Source code"><path d="M57 2H7a5.006 5.006 0 0 0-5 5v50a5.006 5.006 0 0 0 5 5h50a5.006 5.006 0 0 0 5-5V7a5.006 5.006 0 0 0-5-5zM7 4h50a3 3 0 0 1 3 3v3H4V7a3 3 0 0 1 3-3zm50 56H7a3 3 0 0 1-3-3V12h56v45a3 3 0 0 1-3 3z" fill="#ffffff" opacity="1" data-original="#000000" class=""></path><path d="M6 6h2v2H6zM10 6h2v2h-2zM14 6h2v2h-2zM11 56a1 1 0 0 1-1-1V17a1 1 0 0 1 2 0v38a1 1 0 0 1-1 1zM20 24a1 1 0 0 1-.707-.293l-3-3a1 1 0 0 1 0-1.414l3-3a1 1 0 0 1 1.414 1.414L18.414 20l2.293 2.293A1 1 0 0 1 20 24zM28 24a1 1 0 0 1-.707-1.707L29.586 20l-2.293-2.293a1 1 0 0 1 1.414-1.414l3 3a1 1 0 0 1 0 1.414l-3 3A1 1 0 0 1 28 24zM23 25a.968.968 0 0 1-.243-.03 1 1 0 0 1-.728-1.213l2-8a1 1 0 0 1 1.94.486l-2 8A1 1 0 0 1 23 25zM19 29h4v2h-4zM25 29h6v2h-6zM23 33h19v2H23zM45 33h9v2h-9zM23 37h2v2h-2zM27 37h18v2H27zM47 37h7v2h-7zM19 41h4v2h-4zM25 41h6v2h-6zM23 45h19v2H23zM45 45h9v2h-9zM23 49h11v2H23zM36 49h2v2h-2zM42 49h8v2h-8zM19 54h4v2h-4zM25 54h6v2h-6z" fill="#ffffff" opacity="1" data-original="#000000" class=""></path></g></g></svg>