<svg xmlns="http://www.w3.org/2000/svg" version="1.1" xmlns:xlink="http://www.w3.org/1999/xlink" width="512" height="512" x="0" y="0" viewBox="0 0 512 512" style="enable-background:new 0 0 512 512" xml:space="preserve"><g><path d="M214.71 33.032h16.516v16.516H214.71zM247.742 33.032h82.581v16.516h-82.581zM148.645 462.452h16.516v16.516h-16.516zM181.677 462.452h16.516v16.516h-16.516zM148.645 429.419h66.065v16.516h-66.065z" fill="#ffffff" opacity="1" data-original="#000000"></path><path d="M495.484 148.645h-66.065V16.516C429.419 7.407 422.012 0 412.903 0h-214.71c-9.109 0-16.516 7.407-16.516 16.516v165.161H82.581C37.046 181.677 0 218.723 0 264.258c0 26.046 12.338 50.3 33.032 65.875v165.351c0 9.109 7.407 16.516 16.516 16.516h181.677c9.109 0 16.516-7.408 16.516-16.516V363.355h16.516v132.129c0 9.109 7.407 16.516 16.516 16.516h214.71c9.109 0 16.516-7.408 16.516-16.516V165.161c.001-9.108-7.407-16.516-16.515-16.516zm-181.678 214.71H462.451v16.516H313.806zm115.613-66.065h33.032v16.516h-33.032zm-51.48-51.125a16.466 16.466 0 0 0-18.003 3.576l-2.007 2.007-23.354-23.362 1.998-1.998a16.474 16.474 0 0 0 3.592-17.994 16.485 16.485 0 0 0-15.269-10.199h-2.832v-33.032h2.832c6.714 0 12.701-4.005 15.269-10.199s1.156-13.254-3.592-17.994l-1.998-2.007 23.354-23.362 2.007 2.007c4.74 4.748 11.809 6.144 18.003 3.584s10.19-8.555 10.19-15.261v-2.833h24.774v25.468c-2.725-.388-5.475-.694-8.258-.694-31.868 0-57.806 25.93-57.806 57.806s25.939 57.806 57.806 57.806c2.783 0 5.533-.306 8.258-.694v25.468h-24.774v-2.833a16.466 16.466 0 0 0-10.19-15.26zm34.964-24.114c-2.709.553-5.45.917-8.258.917-22.767 0-41.29-18.523-41.29-41.29s18.523-41.29 41.29-41.29c2.808 0 5.549.363 8.258.917zm16.516 9.175h33.032v16.516h-33.032zM33.875 308.852c-11.033-12.057-17.358-27.879-17.358-44.594 0-36.426 29.638-66.065 66.065-66.065h99.097v99.097H49.548c-7.366 0-13.551 4.881-15.673 11.562zm98.254 21.471v16.516h-16.516v-33.032h49.548v33.032h-16.516v-16.516zM49.548 495.484V313.806h49.548v33.032c0 9.109 7.407 16.516 16.516 16.516h49.548c9.109 0 16.516-7.407 16.516-16.516v-33.032h49.548l.017 181.677H49.548zM231.226 297.29h-33.032v-99.097h54.388l-27.194 27.194 11.677 11.677 47.129-47.129-47.129-47.129-11.677 11.677 27.194 27.194h-54.388V16.516h214.71v66.065h-41.29v19.349L357.93 88.255l-46.708 46.716 13.675 13.675h-19.349v66.065h19.349l-13.675 13.684 46.708 46.716 13.684-13.684v19.349h41.29v66.065H247.742v-33.032c0-9.111-7.408-16.519-16.516-16.519zm264.258 198.194h-214.71V363.355h16.516v16.516c0 9.109 7.407 16.516 16.516 16.516h148.645c9.109 0 16.516-7.407 16.516-16.516v-16.516c0-9.109-7.407-16.516-16.516-16.516h-33.032v-16.516h33.032c9.109 0 16.516-7.407 16.516-16.516V297.29c0-9.109-7.407-16.516-16.516-16.516h-33.032v-16.516h33.032c9.109 0 16.516-7.407 16.516-16.516v-16.516c0-9.109-7.407-16.516-16.516-16.516h-33.032v-49.548h66.065z" fill="#ffffff" opacity="1" data-original="#000000"></path><path d="M330.323 429.419h16.516v16.516h-16.516zM379.871 429.419h16.516v16.516h-16.516zM429.419 429.419h16.516v16.516h-16.516zM247.742 247.742h16.516v16.516h-16.516zM280.774 247.742h33.032v16.516h-33.032zM247.742 280.774h66.065v16.516h-66.065zM214.71 66.065h99.097v16.516H214.71z" fill="#ffffff" opacity="1" data-original="#000000"></path></g></svg>