<svg width="89" height="66" viewBox="0 0 89 66" fill="none" xmlns="http://www.w3.org/2000/svg">
<path fill-rule="evenodd" clip-rule="evenodd" d="M60.3601 31.5569C60.168 31.5569 59.976 31.5028 59.8101 31.3927C59.4956 31.1885 59.3211 30.8251 59.3595 30.4513C59.9096 25.0073 61.3226 19.9335 63.5599 15.3697C65.537 11.3386 68.1255 7.80016 71.292 4.79252C55.8349 13.0555 49.5438 30.6853 51.6659 44.9286C52.9985 53.8693 58.3133 63.4246 69.2329 63.4246C78.6572 63.4247 86.3264 55.7555 86.3264 46.3293C86.3263 36.9049 78.6573 29.2357 69.2329 29.2357C66.2952 29.2358 63.3994 29.9937 60.8547 31.4277C60.7009 31.515 60.5297 31.5569 60.3601 31.5569ZM77.8257 0.000167847C78.2118 0.000167847 78.5751 0.223618 78.7428 0.588654C78.9506 1.04803 78.7881 1.59118 78.3603 1.86013C66.7683 9.11188 62.7897 20.1885 61.581 28.82C63.9825 27.7722 66.5936 27.2237 69.2327 27.2237C79.7679 27.2238 88.3384 35.7958 88.3384 46.3292C88.3382 56.8645 79.768 65.4365 69.2327 65.4365C63.9754 65.4366 59.3541 63.3826 55.868 59.4983C52.6787 55.9459 50.5375 51.01 49.6765 45.2237C47.1404 28.2105 56.0427 6.59323 77.5323 0.0436401C77.6302 0.014061 77.7298 0.000114441 77.8257 0.000167847Z" fill="#FFCF52"/>
<path fill-rule="evenodd" clip-rule="evenodd" d="M11.5756 31.5569C11.3835 31.5569 11.1914 31.5028 11.0237 31.3927C10.7093 31.1885 10.5365 30.8251 10.5731 30.4513C11.1233 25.0073 12.538 19.9335 14.7753 15.3697C16.7523 11.3386 19.3391 7.80015 22.5056 4.79252C7.05186 13.0555 0.759239 30.6853 2.88135 44.9286C4.21379 53.8693 9.52693 63.4246 20.4464 63.4246C29.8726 63.4247 37.54 55.7555 37.54 46.3293C37.5399 36.9049 29.8726 29.2357 20.4464 29.2357C17.5103 29.2358 14.6129 29.9937 12.0681 31.4277C11.9143 31.515 11.7451 31.5568 11.5756 31.5569ZM29.0412 0.000167847C29.4271 0.000167847 29.7905 0.223618 29.9564 0.588654C30.1659 1.04803 30.0018 1.59118 29.5756 1.86013C17.9818 9.11188 14.0051 20.1885 12.7965 28.82C15.1978 27.7722 17.8073 27.2237 20.4464 27.2237C30.9815 27.2238 39.552 35.7958 39.552 46.3292C39.5519 56.8645 30.9816 65.4365 20.4464 65.4365C15.191 65.4366 10.5696 63.3826 7.0835 59.4983C3.89409 55.9459 1.75298 51.01 0.890171 45.2254C-1.64414 28.2105 7.25812 6.59325 28.7477 0.0436707C28.8455 0.0140915 28.9434 0.000106812 29.0412 0.000167847Z" fill="#FFCF52"/>
</svg>
