<svg width="36" height="30" viewBox="0 0 36 30" fill="none" xmlns="http://www.w3.org/2000/svg">
<path d="M34.5873 1.65273C34.0091 1.0691 33.2073 0.758186 32.3837 0.801823C31.5601 0.845459 30.7964 1.23819 30.2837 1.87637L23.2528 10.3855C21.8946 10.0909 20.6946 10.6964 19.8546 12.1418C19.5491 12.6655 19.3419 13.2764 19.2382 13.9582C19.0691 15.0436 18.731 15.9818 18.1964 16.8218C18.1091 16.9636 18.0982 17.1382 18.1746 17.2855C18.251 17.4327 18.4037 17.5255 18.5673 17.5309C18.8019 17.5418 19.0364 17.5418 19.2601 17.5418C21.9764 17.5418 23.8746 16.8982 24.9001 15.6327C25.6964 14.6455 25.7401 13.56 25.6855 12.9709L34.3146 5.95637C34.9582 5.4491 35.3564 4.68546 35.411 3.86728C35.471 3.04364 35.1655 2.23637 34.5873 1.65273ZM25.3419 9.31637L26.8582 10.8327L25.2982 12.0982L24.0655 10.86L25.3419 9.31637ZM24.1746 15.06C23.3564 16.0636 21.7037 16.5982 19.3746 16.6146C19.7564 15.8509 20.0128 15.0218 20.1546 14.0946C20.2419 13.5273 20.411 13.0255 20.6564 12.6055C21.191 11.6891 21.8455 11.2309 22.6091 11.2309C22.7946 11.2309 22.991 11.2582 23.1928 11.3127L24.7528 12.8836C24.8073 13.2164 24.8837 14.1982 24.1746 15.06ZM33.7473 5.23091L33.7419 5.23637L27.5782 10.2491L25.931 8.60182L31.0037 2.46546C31.3528 2.0291 31.871 1.76182 32.4328 1.7291C32.9946 1.69637 33.5346 1.9091 33.9273 2.30728C34.3201 2.70546 34.5273 3.25091 34.4946 3.80728C34.4619 4.36364 34.1891 4.88182 33.7473 5.23091Z" fill="white"/>
<path d="M15.5728 22.6418C15.865 22.6418 16.1019 22.4049 16.1019 22.1127C16.1019 21.8205 15.865 21.5836 15.5728 21.5836C15.2806 21.5836 15.0437 21.8205 15.0437 22.1127C15.0437 22.4049 15.2806 22.6418 15.5728 22.6418Z" fill="white"/>
<path d="M10.1073 4.06909C10.1073 3.81273 9.9 3.60545 9.64363 3.60545H3.68727C3.43091 3.60545 3.22363 3.81273 3.22363 4.06909V8.74364C3.22363 9 3.43091 9.20727 3.68727 9.20727H9.64363C9.9 9.20727 10.1073 9 10.1073 8.74364V4.06909ZM9.18 8.27454H4.15091V4.52727H9.18V8.27454Z" fill="white"/>
<path d="M10.1073 11.0345C10.1073 10.7782 9.9 10.5709 9.64363 10.5709H3.68727C3.43091 10.5709 3.22363 10.7782 3.22363 11.0345C3.22363 11.2909 3.43091 11.4982 3.68727 11.4982H9.64363C9.9 11.4982 10.1073 11.2909 10.1073 11.0345Z" fill="white"/>
<path d="M3.68727 12.6546C3.43091 12.6546 3.22363 12.8618 3.22363 13.1182C3.22363 13.3746 3.43091 13.5818 3.68727 13.5818H7.87091C8.12727 13.5818 8.33454 13.3746 8.33454 13.1182C8.33454 12.8618 8.12727 12.6546 7.87091 12.6546H3.68727Z" fill="white"/>
<path d="M18.1583 11.0345C18.1583 10.7782 17.951 10.5709 17.6947 10.5709H11.7383C11.4819 10.5709 11.2747 10.7782 11.2747 11.0345C11.2747 11.2909 11.4819 11.4982 11.7383 11.4982H17.6947C17.951 11.4982 18.1583 11.2909 18.1583 11.0345Z" fill="white"/>
<path d="M11.7383 12.6546C11.4819 12.6546 11.2747 12.8618 11.2747 13.1182C11.2747 13.3746 11.4819 13.5818 11.7383 13.5818H15.9219C16.1783 13.5818 16.3856 13.3746 16.3856 13.1182C16.3856 12.8618 16.1783 12.6546 15.9219 12.6546H11.7383Z" fill="white"/>
<path d="M18.1583 4.06909C18.1583 3.81273 17.951 3.60545 17.6947 3.60545H11.7383C11.4819 3.60545 11.2747 3.81273 11.2747 4.06909V8.74364C11.2747 9 11.4819 9.20727 11.7383 9.20727H17.6947C17.951 9.20727 18.1583 9 18.1583 8.74364V4.06909ZM17.231 8.27454H12.2019V4.52727H17.231V8.27454Z" fill="white"/>
<path d="M30.5728 11.5146C30.5728 11.2582 30.3655 11.0509 30.1091 11.0509C29.8528 11.0509 29.6455 11.2582 29.6455 11.5146V19.7346H1.50003V3.53455C1.50003 2.52546 2.31821 1.70182 3.3273 1.70182H27.8128C27.9982 1.70182 28.1891 1.73455 28.4018 1.81091C28.6418 1.89273 28.9091 1.76182 28.9909 1.52182C29.0728 1.28182 28.9418 1.01455 28.7018 0.932733C28.3909 0.829097 28.1018 0.774551 27.8128 0.774551H3.3273C1.81094 0.774551 0.572754 2.01273 0.572754 3.53455V20.1982V21.72C0.572754 23.2418 1.81094 24.48 3.3273 24.48H11.8964L11.1873 26.1709H9.15275C8.31275 26.1709 7.63094 26.8527 7.63094 27.6927C7.63094 28.5327 8.31275 29.2146 9.15275 29.2146H21.9982C22.8382 29.2146 23.52 28.5327 23.52 27.6927C23.52 26.8527 22.8382 26.1709 21.9982 26.1709H19.9637L19.2546 24.48H27.8182C29.3346 24.48 30.5728 23.2473 30.5728 21.7309V20.1982V11.5146ZM22.5928 27.6982C22.5928 28.0255 22.3255 28.2927 21.9982 28.2927H9.15275C8.82548 28.2927 8.55821 28.0255 8.55821 27.6982C8.55821 27.3709 8.82548 27.1036 9.15275 27.1036H21.9982C22.3255 27.1036 22.5928 27.3709 22.5928 27.6982ZM18.9546 26.1764H12.1909L12.9 24.4855H18.2455L18.9546 26.1764ZM29.6455 21.7364C29.6455 22.74 28.8273 23.5582 27.8182 23.5582H3.3273C2.31821 23.5582 1.50003 22.7346 1.50003 21.7255V20.6673H29.6455V21.7364Z" fill="white"/>
</svg>
