<svg width="31" height="31" viewBox="0 0 31 31" fill="none" xmlns="http://www.w3.org/2000/svg">
<path d="M20.6464 4.26856C20.598 4.26856 20.5495 4.25645 20.5011 4.23829C20.3316 4.16563 20.162 4.09297 19.9865 4.02637C19.7988 3.95372 19.7079 3.7418 19.7806 3.55411C19.8533 3.36641 20.0652 3.27559 20.2529 3.34825C20.4345 3.4209 20.6161 3.49356 20.7978 3.57832C20.9794 3.65704 21.0642 3.875 20.9794 4.05664C20.9189 4.18985 20.7857 4.26856 20.6464 4.26856Z" fill="white"/>
<path d="M6.27266 6.27266C8.73691 3.8084 12.0125 2.45215 15.5 2.45215C16.7775 2.45215 18.043 2.63379 19.2539 3.00312C19.4477 3.06367 19.5566 3.26348 19.4961 3.45723C19.4355 3.65098 19.2357 3.75996 19.042 3.69941C17.8977 3.3543 16.7049 3.17871 15.4939 3.17871C12.6422 3.17871 10.0084 4.15352 7.91953 5.78828C8.01035 5.80645 8.10723 5.83066 8.19805 5.86699C8.85195 6.09102 9.4332 6.68438 9.72383 7.41094C10.0023 8.11328 9.97813 8.8459 9.65723 9.47559C9.34844 10.0689 8.73691 10.9045 8.08301 11.7764C7.70156 12.291 6.86602 14.2285 7.59863 17.0258C7.96191 18.4002 8.58555 20.4467 8.96699 21.6818L13.0479 9.79648H12.1033C11.6068 9.79648 11.2012 9.39082 11.2012 8.89434C11.2012 8.39785 11.6068 7.99219 12.1033 7.99219H19.151C19.6475 7.99219 20.0531 8.39785 20.0531 8.89434C20.0531 9.39082 19.6475 9.79648 19.151 9.79648H18.1822L16.5232 13.7986L18.8664 20.8039L22.6324 9.80254H21.6879C21.1914 9.80254 20.7857 9.39687 20.7857 8.90039C20.7857 8.40391 21.1914 7.99824 21.6879 7.99824H25.2662C24.2793 6.70859 23.026 5.60664 21.5729 4.77715C21.3973 4.68027 21.3367 4.45625 21.4336 4.28066C21.5305 4.10508 21.7545 4.04453 21.9301 4.14141C23.9039 5.26758 25.5568 6.89023 26.7193 8.83984C27.9121 10.85 28.5479 13.1508 28.5479 15.5C28.5479 18.9875 27.1916 22.2631 24.7273 24.7273C22.2631 27.1916 18.9875 28.5479 15.5 28.5479C13.7018 28.5479 11.958 28.1906 10.3232 27.4822C10.1416 27.4035 10.0568 27.1916 10.1355 27.0039C10.2143 26.8223 10.4262 26.7375 10.6139 26.8162C10.7592 26.8768 10.9045 26.9373 11.0498 26.9918L14.8885 16.5596C14.943 16.4143 15.0762 16.3234 15.2275 16.3234C15.3789 16.3234 15.5182 16.4203 15.5666 16.5656L19.4053 27.1855C19.8594 27.0342 20.2953 26.8586 20.7191 26.6588L26.7254 10.4322C26.459 9.83887 26.1441 9.26367 25.7809 8.72481H21.6879C21.591 8.72481 21.5123 8.80352 21.5123 8.90039C21.5123 8.99727 21.591 9.07598 21.6879 9.07598H23.141C23.2561 9.07598 23.3711 9.13047 23.4377 9.22734C23.5043 9.32422 23.5225 9.44531 23.4861 9.5543L19.2055 22.0512C19.157 22.1965 19.0178 22.2994 18.8604 22.2994C18.7029 22.2994 18.5637 22.1965 18.5152 22.0512L15.7846 13.9016C15.7543 13.8168 15.7604 13.726 15.7906 13.6473L17.5949 9.29395C17.6494 9.16074 17.7826 9.06992 17.9279 9.06992H19.1389C19.2357 9.06992 19.3145 8.99121 19.3145 8.89434C19.3145 8.79746 19.2357 8.71875 19.1389 8.71875H12.1033C12.0064 8.71875 11.9277 8.79746 11.9277 8.89434C11.9277 8.99121 12.0064 9.06992 12.1033 9.06992H13.5564C13.6715 9.06992 13.7865 9.12441 13.8531 9.22129C13.9197 9.31816 13.9379 9.43926 13.9016 9.54824L9.3 22.9594C9.25156 23.1047 9.1123 23.2076 8.95488 23.2076H8.94883C8.79141 23.2076 8.65215 23.1047 8.60977 22.9533C8.59766 22.917 7.44727 19.2902 6.90234 17.2074C6.12129 14.2406 6.95684 12.073 7.50781 11.3404C8.14355 10.4928 8.73691 9.6875 9.01543 9.14258C9.23945 8.70664 9.25762 8.18594 9.05176 7.6834C8.83984 7.15664 8.40996 6.70859 7.96191 6.55117C7.69551 6.46035 7.41094 6.43613 7.11426 6.47852C5.89727 7.61074 4.91035 8.9791 4.23223 10.5109C4.22617 11.4555 4.46231 12.1699 4.81953 13.2416C4.89824 13.4838 4.98301 13.732 5.07383 14.0105C5.58242 15.5908 8.23437 23.4559 9.10019 26.0291C9.20918 26.0957 9.32422 26.1623 9.4332 26.2229C9.60879 26.3197 9.66934 26.5437 9.57246 26.7193C9.50586 26.8344 9.38477 26.901 9.25762 26.901C9.19707 26.901 9.13652 26.8828 9.07598 26.8525C4.98906 24.5396 2.45215 20.1863 2.45215 15.4939C2.45215 12.0125 3.8084 8.73691 6.27266 6.27266ZM15.2215 17.7402L11.7279 27.234C12.9389 27.6215 14.2043 27.8213 15.4939 27.8213C16.602 27.8213 17.6797 27.6699 18.7029 27.3975L15.2215 17.7402ZM21.6818 26.1502C25.351 24.0129 27.8213 20.041 27.8213 15.5C27.8213 14.0953 27.5791 12.727 27.1311 11.4373L21.6818 26.1502ZM8.10723 25.357C7.0416 22.1965 4.83769 15.6635 4.38359 14.2346C4.29883 13.9621 4.21406 13.7139 4.13535 13.4777C3.95371 12.9389 3.80234 12.4727 3.6873 12.0064C3.36035 13.1145 3.17871 14.2891 3.17871 15.5C3.17871 19.3992 5.0375 23.0441 8.10723 25.357Z" fill="white"/>
</svg>
