<svg width="31" height="31" viewBox="0 0 31 31" fill="none" xmlns="http://www.w3.org/2000/svg">
<mask id="mask0_735_134" style="mask-type:luminance" maskUnits="userSpaceOnUse" x="0" y="0" width="31" height="31">
<path d="M0 -9.53674e-06H31V31H0V-9.53674e-06Z" fill="white"/>
</mask>
<g mask="url(#mask0_735_134)">
<path d="M0.605469 9.40452H10.105H28.1857" stroke="white" stroke-miterlimit="10" stroke-linecap="round" stroke-linejoin="round"/>
<path d="M5.66162 6.82802C6.45454 6.82802 7.10155 6.18307 7.10155 5.39057C7.10155 4.59808 6.45454 3.95313 5.66162 3.95313C4.87045 3.95313 4.22339 4.59808 4.22339 5.39057C4.22339 6.18307 4.87045 6.82802 5.66162 6.82802Z" stroke="white" stroke-miterlimit="10" stroke-linecap="round" stroke-linejoin="round"/>
<path d="M18.1611 3.9531H23.5777C24.3688 3.9531 25.0159 4.5998 25.0159 5.39054C25.0159 6.18135 24.3688 6.82799 23.5777 6.82799H18.1611C17.37 6.82799 16.7229 6.18135 16.7229 5.39054C16.7229 4.5998 17.37 3.9531 18.1611 3.9531Z" stroke="white" stroke-miterlimit="10" stroke-linecap="round" stroke-linejoin="round"/>
<path d="M10.9714 6.82802C11.7644 6.82802 12.4114 6.18307 12.4114 5.39057C12.4114 4.59808 11.7644 3.95313 10.9714 3.95313C10.1803 3.95313 9.5332 4.59808 9.5332 5.39057C9.5332 6.18307 10.1803 6.82802 10.9714 6.82802Z" stroke="white" stroke-miterlimit="10" stroke-linecap="round" stroke-linejoin="round"/>
<path d="M9.8338 14.0617L8.62207 19.1323" stroke="white" stroke-miterlimit="10" stroke-linecap="round" stroke-linejoin="round"/>
<path d="M12.6248 18.6743L14.3393 16.7496C14.4148 16.6656 14.4148 16.5284 14.3393 16.4443L12.6248 14.5197" stroke="white" stroke-miterlimit="10" stroke-linecap="round" stroke-linejoin="round"/>
<path d="M5.83148 18.6743L4.11697 16.7496C4.04141 16.6656 4.04141 16.5284 4.11697 16.4443L5.83148 14.5197" stroke="white" stroke-miterlimit="10" stroke-linecap="round" stroke-linejoin="round"/>
<path d="M24.4923 16.7376C25.1547 16.8852 25.7743 17.1459 26.3321 17.4958L26.8281 17.0018C27.1216 16.7067 27.6038 16.7067 27.8991 17.0018L28.6799 17.7823C28.9751 18.0773 28.9751 18.5593 28.6799 18.8527L28.1856 19.3484C28.5341 19.9008 28.7915 20.5149 28.9408 21.1701H29.6359C30.053 21.1701 30.3945 21.5115 30.3945 21.9266V23.033C30.3945 23.4481 30.053 23.7894 29.6359 23.7894H28.9374C28.788 24.4413 28.5306 25.052 28.1856 25.6009L28.6799 26.0949C28.9751 26.3899 28.9751 26.8719 28.6799 27.1653L27.8991 27.9475C27.6038 28.2425 27.1216 28.2425 26.8281 27.9475L26.3321 27.4534C25.7812 27.7999 25.1685 28.0573 24.5129 28.2065V28.9098C24.5129 29.3266 24.1713 29.668 23.756 29.668H22.6491C22.2336 29.668 21.8922 29.3266 21.8922 28.9098V28.2048C21.2399 28.0573 20.6273 27.7983 20.0763 27.4534L19.5821 27.9475C19.2868 28.2425 18.8046 28.2425 18.5111 27.9475L17.7285 27.1653C17.435 26.8719 17.435 26.3899 17.7285 26.0949L18.2245 25.6009C17.8778 25.052 17.6204 24.4413 17.4711 23.7894H16.7691C16.3521 23.7894 16.0122 23.4481 16.0122 23.033V21.9266C16.0122 21.5115 16.3521 21.1701 16.7691 21.1701H17.4694C17.6169 20.5217 17.871 19.9145 18.2125 19.3673L17.7148 18.8681C17.4196 18.5748 17.4196 18.0928 17.7148 17.7977L18.4957 17.0172C18.7909 16.7222 19.2731 16.7222 19.5666 17.0172L20.0592 17.5078C20.6084 17.1596 21.2194 16.9005 21.8716 16.7479V16.0498C21.8716 15.6329 22.2114 15.2916 22.6284 15.2916H23.7337C24.1507 15.2916 24.4923 15.6329 24.4923 16.0498V16.7376Z" stroke="white" stroke-miterlimit="10" stroke-linecap="round" stroke-linejoin="round"/>
<path d="M23.2037 19.3604C24.9268 19.3604 26.3239 20.7567 26.3239 22.4806C26.3239 24.2029 24.9268 25.5992 23.2037 25.5992C21.4789 25.5992 20.0818 24.2029 20.0818 22.4806C20.0818 20.7567 21.4789 19.3604 23.2037 19.3604Z" stroke="white" stroke-miterlimit="10" stroke-linecap="round" stroke-linejoin="round"/>
<path d="M6.44419 23.7894H2.8606C1.62157 23.7894 0.605469 22.5767 0.605469 21.0964V4.02511C0.605469 2.5431 1.61975 1.33204 2.8606 1.33204H5.47277H25.9306C27.1714 1.33204 28.1857 2.5448 28.1857 4.02511V17.2883M16.7692 23.7894H11.8556" stroke="white" stroke-miterlimit="10" stroke-linecap="round" stroke-linejoin="round"/>
<path d="M9.15601 23.7894H9.16893" stroke="white" stroke-miterlimit="10" stroke-linecap="round" stroke-linejoin="round"/>
</g>
</svg>
