<svg width="33" height="23" viewBox="0 0 33 23" fill="none" xmlns="http://www.w3.org/2000/svg">
<path d="M1.73437 0.561829C0.83493 0.561829 0.09375 1.30297 0.09375 2.20242V17.5149C0.09375 18.4143 0.83493 19.1555 1.73437 19.1555H9.40024C9.38761 19.2595 9.36693 19.3782 9.33081 19.5166C9.20279 20.0061 8.88949 20.6618 8.095 21.342H7.20099C6.47165 21.342 6.47165 22.4358 7.20099 22.4358H13.7656C14.495 22.4358 14.495 21.342 13.7656 21.342H9.60745C10.0339 20.7899 10.2699 20.25 10.3893 19.7932C10.4517 19.5543 10.4758 19.3452 10.4886 19.1555H13.7656C14.5051 19.1659 14.5051 18.0514 13.7656 18.0618H1.73437C1.42196 18.0618 1.1875 17.8273 1.1875 17.5149V14.7805H13.7656C14.5052 14.7909 14.5052 13.6764 13.7656 13.6868H1.1875V2.20242C1.1875 1.88998 1.42196 1.6556 1.73437 1.6556H22.5156C22.8281 1.6556 23.0625 1.88998 23.0625 2.20242C23.0524 2.94163 24.1664 2.94163 24.1562 2.20242C24.1562 1.30297 23.4151 0.561829 22.5156 0.561829H1.73437ZM17.0469 3.84092C16.1474 3.84092 15.4041 4.58536 15.4041 5.48479V20.7973C15.4041 21.6967 16.1474 22.4358 17.0469 22.4358H23.6072C24.3366 22.4358 24.3366 21.342 23.6072 21.342H17.0469C16.7345 21.342 16.4979 21.1097 16.4979 20.7973V18.0639H23.6072C24.3366 18.0639 24.3366 16.9702 23.6072 16.9702H16.4979V7.12323H27.4386V8.76704C27.4386 9.49637 28.5323 9.49637 28.5323 8.76704V5.48479C28.5323 4.58534 27.789 3.84092 26.8896 3.84092H17.0469ZM2.82065 4.92718C2.51691 4.93132 2.27451 5.18107 2.28018 5.48479V6.57849C2.28018 7.30785 3.37393 7.30785 3.37393 6.57849V5.48479C3.37968 5.17634 3.12913 4.92365 2.82065 4.92718ZM17.0469 4.93545H26.8896C27.202 4.93545 27.4386 5.17204 27.4386 5.48447V6.02921H16.4979V5.48447C16.4979 5.17202 16.7345 4.93545 17.0469 4.93545ZM2.82065 8.20924C2.51691 8.21337 2.27451 8.46309 2.28018 8.76678V12.0438C2.28018 12.7731 3.37393 12.7731 3.37393 12.0438V8.76678C3.37968 8.45833 3.12913 8.20573 2.82065 8.20924ZM18.1331 8.20924C17.8294 8.21337 17.587 8.46311 17.5927 8.76678V9.86055C17.5927 10.5899 18.6864 10.5899 18.6864 9.86055V8.76678C18.6922 8.45833 18.4416 8.20573 18.1331 8.20924ZM26.8896 10.4053C25.9901 10.4053 25.25 11.1443 25.25 12.0438V20.797C25.25 21.6964 25.9901 22.4355 26.8896 22.4355H31.2656C32.1651 22.4355 32.9041 21.6964 32.9041 20.797V12.0438C32.9041 11.1443 32.1651 10.4053 31.2656 10.4053H26.8896ZM18.1331 11.4915C17.831 11.4957 17.5893 11.7417 17.5927 12.0438V15.3261C17.5927 16.0554 18.6864 16.0554 18.6864 15.3261V12.0438C18.6897 11.7369 18.44 11.4881 18.1331 11.4915ZM26.8896 11.4998H31.2656C31.578 11.4998 31.8104 11.7321 31.8104 12.0446V12.5941H26.3448V12.044C26.3448 11.7316 26.5771 11.4998 26.8896 11.4998ZM26.3448 13.6884H31.8104V19.154H26.3448V13.6884ZM11.5771 16.9707H12.6719C13.4012 16.9707 13.4012 15.8759 12.6719 15.8759H11.5509C10.7954 15.9108 10.8477 17.0057 11.5771 16.9707ZM21.424 19.154C20.6947 19.154 20.6947 20.2477 21.424 20.2477H22.5178C23.2471 20.2477 23.2471 19.154 22.5178 19.154H21.424ZM26.3448 20.2477H31.8104V20.7978C31.8104 21.1102 31.578 21.3425 31.2656 21.3425H26.8896C26.5771 21.3425 26.3448 21.1102 26.3448 20.7978V20.2477Z" fill="white"/>
</svg>
