<svg width="30" height="30" viewBox="0 0 30 30" fill="none" xmlns="http://www.w3.org/2000/svg">
<path d="M27.6562 6.09375H24.8438V2.34375C24.8438 1.30969 24.0028 0.46875 22.9688 0.46875H7.03125C5.99719 0.46875 5.15625 1.30969 5.15625 2.34375V6.09375H2.34375C1.30969 6.09375 0.46875 6.93469 0.46875 7.96875V22.0312C0.46875 23.0653 1.30969 23.9062 2.34375 23.9062H11.7188V25.0889C10.1583 25.3383 7.96875 25.9144 7.96875 27.1875C7.96875 28.7981 11.6133 29.5312 15 29.5312C18.3867 29.5312 22.0312 28.7981 22.0312 27.1875C22.0312 25.9144 19.8417 25.3383 18.2812 25.0889V23.9062H27.6562C28.6903 23.9062 29.5312 23.0653 29.5312 22.0312V7.96875C29.5312 6.93469 28.6903 6.09375 27.6562 6.09375ZM21.0938 12.6562V12.1875C21.0938 11.4122 20.4628 10.7812 19.6875 10.7812H17.3438V8.66625C17.3438 8.04047 16.9411 7.49906 16.3416 7.31906L12.4359 6.14719C12.3159 6.11203 12.1922 6.09375 12.0656 6.09375C11.3573 6.09375 10.7812 6.66984 10.7812 7.37812V11.4291L9.68344 11.978C9.20391 12.2175 8.90625 12.6998 8.90625 13.2356V16.4062H18.2812V17.3438H7.03125C6.51422 17.3438 6.09375 16.9233 6.09375 16.4062V5.15625H23.9062V12.6562H21.0938ZM26.7591 18.9844L24.6094 21.1341L20.1562 16.6809L19.2188 17.6184V13.5938H23.2434L22.3059 14.5312L26.7591 18.9844ZM16.4062 12.6562V15.4688H15.4688V12.1875C15.4688 11.9292 15.6792 11.7188 15.9375 11.7188H19.6875C19.9458 11.7188 20.1562 11.9292 20.1562 12.1875V12.6562H18.2812V15.4688H17.3438V12.6562H16.4062ZM12.3666 10.7812C12.1772 10.7812 11.9873 10.8262 11.8177 10.9106L11.7188 10.9603V9.03797L16.4062 10.2098V10.7812H15.9375C15.1622 10.7812 14.5312 11.4122 14.5312 12.1875V15.4688H13.5938V12.0084C13.5938 11.3316 13.0434 10.7812 12.3666 10.7812ZM16.4062 9.24328L11.7188 8.07141V7.37812C11.7188 7.15359 11.9498 6.98016 12.1678 7.04578L16.0725 8.21719C16.2717 8.27719 16.4062 8.45766 16.4062 8.66625V9.24328ZM12.2367 11.7492C12.42 11.6569 12.6562 11.8045 12.6562 12.0084V12.3666L9.84375 13.7728V13.2356C9.84375 13.057 9.94312 12.8962 10.103 12.8166L12.2367 11.7492ZM9.84375 14.8209L12.6562 13.4147V15.4688H9.84375V14.8209ZM21.3684 19.2188H18.9441L20.1562 18.0066L21.3684 19.2188ZM7.03125 1.40625H22.9688C23.4858 1.40625 23.9062 1.82672 23.9062 2.34375V4.21875H6.09375V2.34375C6.09375 1.82672 6.51422 1.40625 7.03125 1.40625ZM2.34375 7.03125H5.15625V16.4062C5.15625 17.4403 5.99719 18.2812 7.03125 18.2812H18.2812V19.2188H1.40625V7.96875C1.40625 7.45172 1.82672 7.03125 2.34375 7.03125ZM21.0938 27.1875C21.0938 27.608 19.0205 28.5938 15 28.5938C10.9795 28.5938 8.90625 27.608 8.90625 27.1875C8.90625 26.9958 9.58969 26.4009 11.7188 26.0391V27.6562H18.2812V26.0391C20.4103 26.4009 21.0938 26.9958 21.0938 27.1875ZM17.3438 26.7188H12.6562V23.9062H17.3438V26.7188ZM28.5938 22.0312C28.5938 22.5483 28.1733 22.9688 27.6562 22.9688H2.34375C1.82672 22.9688 1.40625 22.5483 1.40625 22.0312V20.1562H22.3059L24.6094 22.4597L28.0847 18.9844L23.6316 14.5312L25.5066 12.6562H24.8438V7.03125H27.6562C28.1733 7.03125 28.5938 7.45172 28.5938 7.96875V22.0312Z" fill="white"/>
<path d="M7.03125 2.34375H7.96875V3.28125H7.03125V2.34375Z" fill="white"/>
<path d="M8.90625 2.34375H9.84375V3.28125H8.90625V2.34375Z" fill="white"/>
<path d="M10.7812 2.34375H11.7188V3.28125H10.7812V2.34375Z" fill="white"/>
<path d="M14.0625 21.0938H15.9375V22.0312H14.0625V21.0938Z" fill="white"/>
<path d="M16.875 21.0938H17.8125V22.0312H16.875V21.0938Z" fill="white"/>
<path d="M12.1875 21.0938H13.125V22.0312H12.1875V21.0938Z" fill="white"/>
</svg>
