<svg width="29" height="25" viewBox="0 0 29 25" fill="none" xmlns="http://www.w3.org/2000/svg">
<path d="M27.7262 0.208984H1.27375C0.570389 0.208984 0 0.779373 0 1.48273V19.1154C0 19.819 0.570389 20.3892 1.27375 20.3892H11.3697V22.6154H10.1674C9.56209 22.6154 9.07113 23.1062 9.07113 23.7117C9.07113 24.3171 9.56209 24.8081 10.1674 24.8081H18.8326C19.4381 24.8081 19.9289 24.3171 19.9289 23.7117C19.9289 23.1062 19.4379 22.6154 18.8326 22.6154H17.6303V20.3892H27.7262C28.4296 20.3892 29 19.819 29 19.1154V1.48273C29 0.779373 28.4296 0.208984 27.7262 0.208984ZM19.0797 23.7117C19.0797 23.8483 18.9691 23.9589 18.8326 23.9589H10.1674C10.0309 23.9589 9.9203 23.8483 9.9203 23.7117C9.9203 23.5752 10.0309 23.4646 10.1674 23.4646H18.8323C18.9689 23.4646 19.0797 23.5752 19.0797 23.7117ZM28.1508 19.1154C28.1508 19.3495 27.9603 19.54 27.7262 19.54H14.415C14.1805 19.54 13.9905 19.7301 13.9905 19.9646C13.9905 20.1991 14.1805 20.3892 14.415 20.3892H16.7809V22.6154H12.2191V20.3892H12.4335C12.668 20.3892 12.8581 20.1991 12.8581 19.9646C12.8581 19.7301 12.668 19.54 12.4335 19.54H1.27375C1.03967 19.54 0.849167 19.3495 0.849167 19.1154V1.48273C0.849167 1.24865 1.03967 1.05815 1.27375 1.05815H27.7262C27.9603 1.05815 28.1508 1.24865 28.1508 1.48273V19.1154Z" fill="white"/>
</svg>
