<svg xmlns="http://www.w3.org/2000/svg" version="1.1" xmlns:xlink="http://www.w3.org/1999/xlink" width="512" height="512" x="0" y="0" viewBox="0 0 512 512" style="enable-background:new 0 0 512 512" xml:space="preserve" class=""><g><path d="M122.64 266.947H92.261a8 8 0 0 0-8 8v71.458a8 8 0 0 0 16 0v-21.421h22.379c16.001 0 29.019-13.018 29.019-29.02s-13.018-29.018-29.019-29.018zm0 42.038h-22.379v-26.038h22.379c7.179 0 13.019 5.84 13.019 13.018s-5.84 13.02-13.019 13.02zm103.562 13.026c2.408 5.103 2.473 10.843.186 16.598-3.025 7.611-10.737 12.918-21.716 14.942-2.994.552-6.283.851-9.696.851-11.566 0-24.571-3.426-32.466-12.021a8 8 0 0 1 .48-11.303 8 8 0 0 1 11.303.48c4.906 5.341 17.232 8.148 27.477 6.259 6.146-1.133 9.093-3.465 9.749-5.117.931-2.341.428-3.406.213-3.86-.494-1.048-2.942-4.734-13.673-8.181-1.988-.638-4.189-1.243-6.52-1.884-7.546-2.074-16.099-4.425-22.146-9.361-5.734-4.68-8.931-10.847-9.003-17.363-.072-6.454 2.866-12.551 8.272-17.167 12.761-10.895 39.166-10.619 53.307.56a8 8 0 0 1-9.922 12.552c-7.944-6.278-26.138-6.799-32.997-.944-1.735 1.481-2.68 3.194-2.663 4.822.024 2.166 1.711 3.993 3.122 5.145 3.429 2.799 10.251 4.674 16.27 6.329 2.389.657 4.859 1.335 7.17 2.078 12.063 3.874 19.886 9.454 23.252 16.586zm46.45-55.064h-24.936a8 8 0 0 0-8 8v71.458a8 8 0 0 0 8 8h24.936c24.112 0 43.729-19.617 43.729-43.729s-19.617-43.729-43.729-43.729zm0 71.458h-16.936v-55.458h16.936c15.29 0 27.729 12.439 27.729 27.729s-12.439 27.729-27.729 27.729zM501 147.597a8 8 0 0 0 8-8V82.493c0-13.132-10.684-23.815-23.816-23.815h-31.863V26.815C453.321 13.683 442.637 3 429.506 3H209.844c-8.864 0-16.863 3.313-23.129 9.581L113.404 85.89c-6.267 6.268-9.58 14.266-9.58 23.129v114.692H26.815C13.683 223.711 3 234.395 3 247.526v126.299c0 13.132 10.683 23.816 23.815 23.816h77.009v31.863c0 13.132 10.684 23.815 23.816 23.815h31.863v31.864c0 13.132 10.684 23.815 23.816 23.815h301.865c13.132 0 23.816-10.684 23.816-23.815V173.319a8 8 0 0 0-16 0v311.866c0 4.31-3.506 7.815-7.816 7.815H183.319c-4.31 0-7.816-3.506-7.816-7.815v-31.864h254.002c13.132 0 23.815-10.684 23.815-23.815V74.679h31.863c4.31 0 7.816 3.506 7.816 7.815v57.104a8 8 0 0 0 8 8zM193.161 28.762a32.909 32.909 0 0 0-.404 5.104v50.253c0 4.308-3.505 7.813-7.812 7.813h-50.254c-1.731 0-3.435.142-5.106.404l63.576-63.575zm244.16 400.744c0 4.31-3.506 7.815-7.815 7.815H127.64c-4.31 0-7.816-3.506-7.816-7.815v-31.863h254.002c13.132 0 23.815-10.684 23.815-23.816v-29.178a8 8 0 0 0-16 0v29.178c0 4.31-3.506 7.816-7.815 7.816H26.815c-4.309 0-7.815-3.506-7.815-7.816V247.528c0-4.31 3.506-7.815 7.815-7.815h347.011c4.31 0 7.815 3.506 7.815 7.815v29.178a8 8 0 0 0 16 0v-29.178c0-13.132-10.684-23.815-23.815-23.815H119.824V117.046c2.865-5.578 8.554-9.113 14.867-9.113h50.254c13.13 0 23.812-10.683 23.812-23.813V33.866c0-6.312 3.535-12.001 9.113-14.866h211.635c4.31 0 7.815 3.506 7.815 7.815v402.69zm-39.679-119.079v.5a8 8 0 0 1-16 0v-.5a8 8 0 0 1 16 0z" fill="#ffffff" opacity="1" data-original="#000000" class=""></path></g></svg>