<svg xmlns="http://www.w3.org/2000/svg" version="1.1" xmlns:xlink="http://www.w3.org/1999/xlink" width="512" height="512" x="0" y="0" viewBox="0 0 512 512" style="enable-background:new 0 0 512 512" xml:space="preserve" class=""><g><path d="M494.5 16.524H444a7.5 7.5 0 0 0 0 15h50.5c1.378 0 2.5 1.122 2.5 2.5v40.425H15V34.024c0-1.378 1.122-2.5 2.5-2.5H409a7.5 7.5 0 0 0 0-15H17.5c-9.649 0-17.5 7.851-17.5 17.5v359.991c0 9.649 7.851 17.5 17.5 17.5h107.81c22.723 49.499 72.755 83.961 130.69 83.961s107.968-34.463 130.69-83.961H494.5c9.649 0 17.5-7.851 17.5-17.5V34.024c0-9.649-7.851-17.5-17.5-17.5zM256 480.476c-70.975 0-128.717-57.742-128.717-128.717S185.025 223.042 256 223.042s128.717 57.742 128.717 128.717S326.975 480.476 256 480.476zm241-86.461c0 1.378-1.122 2.5-2.5 2.5H392.573a143.137 143.137 0 0 0 7.144-44.755c0-79.246-64.471-143.717-143.717-143.717S112.283 272.514 112.283 351.76c0 15.621 2.515 30.663 7.144 44.755H17.5a2.503 2.503 0 0 1-2.5-2.5V89.449h482z" fill="#ffffff" opacity="1" data-original="#000000" class=""></path><path d="M256 233.042c-65.46 0-118.717 53.256-118.717 118.717S190.54 470.476 256 470.476c56.767 0 105.781-40.396 116.546-96.052a7.501 7.501 0 0 0-5.939-8.788 7.504 7.504 0 0 0-8.788 5.939c-9.402 48.615-52.223 83.9-101.818 83.9-57.189 0-103.717-46.527-103.717-103.717S198.811 248.042 256 248.042c52.285 0 96.533 39.068 102.926 90.876a7.5 7.5 0 1 0 14.887-1.837C366.494 277.77 315.846 233.042 256 233.042z" fill="#ffffff" opacity="1" data-original="#000000" class=""></path><path d="M168.563 351.759c0 48.213 39.224 87.437 87.437 87.437s87.437-39.224 87.437-87.437a7.5 7.5 0 0 0-15 0c0 39.942-32.495 72.437-72.437 72.437s-72.437-32.495-72.437-72.437a7.5 7.5 0 0 0-15 0z" fill="#ffffff" opacity="1" data-original="#000000" class=""></path><path d="M228.805 351.759c0 14.995 12.2 27.195 27.195 27.195s27.195-12.2 27.195-27.195a27.02 27.02 0 0 0-3.683-13.64l40.792-40.792a7.5 7.5 0 0 0 0-10.606 7.5 7.5 0 0 0-10.606 0l-41 41a27.027 27.027 0 0 0-12.697-3.156c-14.996 0-27.196 12.199-27.196 27.194zM256 339.565c6.724 0 12.195 5.47 12.195 12.194s-5.471 12.195-12.195 12.195-12.195-5.471-12.195-12.195 5.471-12.194 12.195-12.194z" fill="#ffffff" opacity="1" data-original="#000000" class=""></path><circle cx="182.125" cy="321.159" r="7.5" fill="#ffffff" opacity="1" data-original="#000000" class=""></circle><circle cx="329.857" cy="321.113" r="7.5" fill="#ffffff" opacity="1" data-original="#000000" class=""></circle><circle cx="286.571" cy="277.874" r="7.5" fill="#ffffff" opacity="1" data-original="#000000" class=""></circle><circle cx="255.97" cy="271.82" r="7.5" fill="#ffffff" opacity="1" data-original="#000000" class=""></circle><circle cx="225.385" cy="277.893" r="7.5" fill="#ffffff" opacity="1" data-original="#000000" class=""></circle><circle cx="199.472" cy="295.242" r="7.5" fill="#ffffff" opacity="1" data-original="#000000" class=""></circle><circle cx="36.5" cy="52.476" r="7.5" fill="#ffffff" opacity="1" data-original="#000000" class=""></circle><circle cx="62.5" cy="52.476" r="7.5" fill="#ffffff" opacity="1" data-original="#000000" class=""></circle><circle cx="88.5" cy="52.476" r="7.5" fill="#ffffff" opacity="1" data-original="#000000" class=""></circle><path d="M72 183.476h91a7.5 7.5 0 0 0 0-15H72c-4.136 0-7.5-3.364-7.5-7.5v-16c0-4.136 3.364-7.5 7.5-7.5h148.5v31H198a7.5 7.5 0 0 0 0 15h247c9.649 0 17.5-7.851 17.5-17.5v-26c0-9.649-7.851-17.5-17.5-17.5H72c-12.407 0-22.5 10.093-22.5 22.5v16c0 12.407 10.093 22.5 22.5 22.5zm293.5-46H445c1.378 0 2.5 1.122 2.5 2.5v26c0 1.378-1.122 2.5-2.5 2.5h-79.5zm-130 0h115v31h-115zM57 227.5h76a7.5 7.5 0 0 0 0-15H57a7.5 7.5 0 0 0 0 15zM57 253.5h76a7.5 7.5 0 0 0 0-15H57a7.5 7.5 0 0 0 0 15zM57 279.5h46a7.5 7.5 0 0 0 0-15H57a7.5 7.5 0 0 0 0 15zM57 305.5h46a7.5 7.5 0 0 0 0-15H57a7.5 7.5 0 0 0 0 15zM57 331.5h31a7.5 7.5 0 0 0 0-15H57a7.5 7.5 0 0 0 0 15zM455 212.5h-76a7.5 7.5 0 0 0 0 15h76a7.5 7.5 0 0 0 0-15zM455 238.5h-76a7.5 7.5 0 0 0 0 15h76a7.5 7.5 0 0 0 0-15zM455 264.5h-46a7.5 7.5 0 0 0 0 15h46a7.5 7.5 0 0 0 0-15zM455 290.5h-46a7.5 7.5 0 0 0 0 15h46a7.5 7.5 0 0 0 0-15zM455 316.5h-31a7.5 7.5 0 0 0 0 15h31a7.5 7.5 0 0 0 0-15z" fill="#ffffff" opacity="1" data-original="#000000" class=""></path></g></svg>