<svg xmlns="http://www.w3.org/2000/svg" version="1.1" xmlns:xlink="http://www.w3.org/1999/xlink" width="512" height="512" x="0" y="0" viewBox="0 0 482 482.034" style="enable-background:new 0 0 512 512" xml:space="preserve" class=""><g><path d="M56.016 80h80a8 8 0 0 0 0-16h-80a8 8 0 0 0 0 16zM200.016 112h-144a8 8 0 0 0 0 16h144a8 8 0 0 0 0-16zM184.016 160h-128a8 8 0 0 0 0 16h128a8 8 0 0 0 0-16zM184.016 208h-128a8 8 0 0 0 0 16h128a8 8 0 0 0 0-16zM184.016 256h-128a8 8 0 0 0 0 16h128a8 8 0 0 0 0-16zm0 0" fill="#ffffff" opacity="1" data-original="#000000" class=""></path><path d="M463.914 215.496c-.039-.7-.18-1.394-.41-2.055-.086-.257-.152-.504-.262-.754a7.886 7.886 0 0 0-1.601-2.343l-64-64a7.94 7.94 0 0 0-2.399-1.602c-.226-.094-.449-.156-.68-.238-.699-.246-1.43-.39-2.167-.434-.153 0-.29-.086-.442-.086H256.016V72c0-.176-.086-.328-.102-.504-.039-.7-.18-1.394-.41-2.055-.086-.257-.152-.504-.262-.754a7.886 7.886 0 0 0-1.601-2.343l-64-64a8.019 8.019 0 0 0-2.352-1.602c-.23-.101-.473-.168-.71-.254a8.225 8.225 0 0 0-2.145-.425c-.121.015-.258-.063-.418-.063h-144C17.938.027.043 17.918.016 40v256c.027 22.082 17.922 39.973 40 40h168v104c.027 22.082 17.922 39.973 40 40h176c22.082-.027 39.976-17.918 40-40V216c0-.176-.086-.328-.102-.504zM436.707 208h-28.691a8 8 0 0 1-8-8v-28.688zm-208-144h-28.691a8 8 0 0 1-8-8V27.312zM40.016 320c-13.254 0-24-10.746-24-24V40c0-13.254 10.746-24 24-24h136v40c0 13.254 10.746 24 24 24h40v64.8c-.141 0-.27.095-.414.13a39.767 39.767 0 0 0-6.664 2.07c-.801.313-1.473.734-2.215 1.098a40.459 40.459 0 0 0-4.243 2.308c-.8.516-1.527 1.098-2.289 1.656a44.008 44.008 0 0 0-3.421 2.833 42.883 42.883 0 0 0-2.04 2.09 37.79 37.79 0 0 0-2.785 3.374c-.586.801-1.144 1.602-1.672 2.403a39.726 39.726 0 0 0-2.144 3.949c-.414.855-.848 1.68-1.2 2.562a40.627 40.627 0 0 0-1.48 4.758c-.207.801-.48 1.543-.64 2.403a39.99 39.99 0 0 0-.793 7.566v136zm384 144h-176c-13.254 0-24-10.746-24-24V184c0-13.254 10.746-24 24-24h136v40c0 13.254 10.746 24 24 24h40v216c0 13.254-10.743 24-24 24zm0 0" fill="#ffffff" opacity="1" data-original="#000000" class=""></path><path d="M264.016 224h80a8 8 0 0 0 0-16h-80a8 8 0 0 0 0 16zM264.016 272h144a8 8 0 0 0 0-16h-144a8 8 0 0 0 0 16zM264.016 320h144a8 8 0 0 0 0-16h-144a8 8 0 0 0 0 16zM264.016 368h144a8 8 0 0 0 0-16h-144a8 8 0 0 0 0 16zM400.016 408a8 8 0 0 0-8-8h-128a8 8 0 0 0 0 16h128a8 8 0 0 0 8-8zM288.64 51.078a7.936 7.936 0 0 0 1.731 2.586l33.934 33.93a8.008 8.008 0 0 0 7.78 2.18 7.993 7.993 0 0 0 5.712-5.715 7.992 7.992 0 0 0-2.18-7.778L315.328 56h76.688c13.257 0 24 10.746 24 24v56a8 8 0 0 0 16 0V80c-.024-22.082-17.918-39.973-40-40h-76.688l20.29-20.281a7.992 7.992 0 0 0 2.179-7.778 7.993 7.993 0 0 0-5.711-5.714 8.008 8.008 0 0 0-7.781 2.18L290.37 42.335a7.936 7.936 0 0 0-1.73 2.586 7.904 7.904 0 0 0 0 6.156zM175.395 436.922a7.936 7.936 0 0 0-1.73-2.586l-33.935-33.93a8.005 8.005 0 0 0-13.496 3.535 7.994 7.994 0 0 0 2.184 7.778L148.707 432H72.016c-13.254 0-24-10.746-24-24v-48a8 8 0 0 0-16 0v48c.027 22.082 17.922 39.973 40 40h76.691l-20.289 20.281a7.994 7.994 0 0 0-2.184 7.778 8.005 8.005 0 0 0 13.496 3.535l33.934-33.93a7.936 7.936 0 0 0 1.73-2.586 7.904 7.904 0 0 0 0-6.156zM424.016 400a8 8 0 0 0-8 8v16a8 8 0 0 1-8 8h-16a8 8 0 0 0 0 16h16c13.257 0 24-10.746 24-24v-16a8 8 0 0 0-8-8zm0 0" fill="#ffffff" opacity="1" data-original="#000000" class=""></path></g></svg>